<?xml version="1.0" encoding="utf-8"?>
<!-- Generator: Adobe Illustrator 22.1.0, SVG Export Plug-In . SVG Version: 6.00 Build 0)  -->
<svg version="1.1" id="Layer_1" xmlns="http://www.w3.org/2000/svg" xmlns:xlink="http://www.w3.org/1999/xlink" x="0px" y="0px"
	 viewBox="0 0 40 40" style="enable-background:new 0 0 40 40;" xml:space="preserve">
<style type="text/css">
	.st0{fill:#BEA8D1;stroke:#010101;stroke-width:4;stroke-miterlimit:10;}
	.st1{fill:#F7A9B0;}
	.st2{fill:#010101;}
</style>
<g>
	<circle class="st0" cx="20" cy="20" r="17.7"/>
	<g>
		<path class="st1" d="M20,28.9c-4.9,0-8.9-4-8.9-8.9s4-8.9,8.9-8.9s8.9,4,8.9,8.9S24.9,28.9,20,28.9z"/>
		<path class="st2" d="M20,13.1c3.8,0,6.9,3.1,6.9,6.9s-3.1,6.9-6.9,6.9s-6.9-3.1-6.9-6.9S16.2,13.1,20,13.1 M20,9.1
			C14,9.1,9.1,14,9.1,20S14,30.9,20,30.9S30.9,26,30.9,20S26,9.1,20,9.1L20,9.1z"/>
	</g>
</g>
</svg>
